# xmcd
#
# Track frame offsets:
#	150
#	18840
#	40419
#	61158
#	84221
#	102023
#	119209
#	138453
#	154815
#	176006
#	193649
#	210464
#	226193
#	240293
#	256369
#	271152
#
# Disc length: 3838
#
# Revision: 2
# Processed by: cddbd v1.5.1PL0 Copyright (c) Steve Scherf et al.
# Submitted via: CDmax 2.0
# Normalized: r1:TDELIM( - )
#
DISCID=cd0efc10
DTITLE=DJ Janin Presents - Sarah's Super Sounds To Camp By
DYEAR=2003
DGENRE=Country
TTITLE0=Tim McGraw - She's My Kind Of Rain
TTITLE1=Tim McGraw - Please Remember Me
TTITLE2=Tim McGraw - My Best Friend
TTITLE3=Tim McGraw - Tiny Dancer
TTITLE4=Brooks and Dunn - Red Dirt Road
TTITLE5=Joe Nichols - Brokenheartsville
TTITLE6=Garth Brooks - Shameless
TTITLE7=Garth Brooks - If Tomorrow Never Comes
TTITLE8=Keith Urban - Raining On Sunday
TTITLE9=Diamond Rio - I Believe
TTITLE10=Jimmy Wayne - Stay Gone
TTITLE11=Rascal Flatts - These Days
TTITLE12=John Michael Montgomery - Life's A Dance
TTITLE13=Diamond Rio - One More Day
TTITLE14=Tim McGraw - All We Ever Find
TTITLE15=Clay Walker - A Few Questions
EXTD=
EXTT0=
EXTT1=
EXTT2=
EXTT3=
EXTT4=
EXTT5=
EXTT6=
EXTT7=
EXTT8=
EXTT9=
EXTT10=
EXTT11=
EXTT12=
EXTT13=
EXTT14=
EXTT15=
PLAYORDER=
